<svg width="96" height="29" viewBox="0 0 96 29" fill="none" xmlns="http://www.w3.org/2000/svg">
<path d="M3.57812 19.9844L0.710938 20C0.658854 20 0.632812 19.974 0.632812 19.9219L0.664062 8.92969C0.664062 8.88802 0.684896 8.86719 0.726562 8.86719L3.71875 8.85156C4.3125 8.83594 4.84896 8.97135 5.32812 9.25781C5.8125 9.54427 6.19792 9.93229 6.48438 10.4219C6.77604 10.9062 6.92188 11.4427 6.92188 12.0312V16.625C6.92188 17.2396 6.77344 17.8021 6.47656 18.3125C6.17448 18.8177 5.77344 19.2214 5.27344 19.5234C4.77344 19.8203 4.20833 19.974 3.57812 19.9844ZM3.71875 10.7656L2.60156 10.7812L2.58594 18.0312H3.57812C3.97396 18.0312 4.30729 17.8932 4.57812 17.6172C4.84896 17.3411 4.98438 17.0104 4.98438 16.625V12.0156C4.98438 11.6771 4.85938 11.3828 4.60938 11.1328C4.35938 10.8776 4.0625 10.7552 3.71875 10.7656ZM10.0703 20H8.25781C8.20573 20 8.17969 19.974 8.17969 19.9219L8.19531 8.92969C8.19531 8.88802 8.21615 8.86719 8.25781 8.86719H10.0547C10.0964 8.86719 10.1172 8.88802 10.1172 8.92969L10.1328 19.9219C10.1328 19.974 10.112 20 10.0703 20ZM14.4688 20.1562C13.8906 20.1562 13.3698 20.013 12.9062 19.7266C12.4375 19.4401 12.0599 19.0547 11.7734 18.5703C11.4922 18.0859 11.3516 17.5443 11.3516 16.9453V11.875C11.3516 11.2917 11.4948 10.7604 11.7812 10.2812C12.0625 9.79688 12.4401 9.41146 12.9141 9.125C13.388 8.83333 13.9062 8.6875 14.4688 8.6875C15.0573 8.6875 15.5885 8.82812 16.0625 9.10938C16.5365 9.39583 16.9115 9.77865 17.1875 10.2578C17.4688 10.737 17.6094 11.276 17.6094 11.875V12.6094C17.6094 12.651 17.5833 12.6719 17.5312 12.6719H15.7344C15.6927 12.6719 15.6719 12.651 15.6719 12.6094V12C15.6719 11.5938 15.5573 11.2578 15.3281 10.9922C15.099 10.7266 14.8125 10.5938 14.4688 10.5938C14.1615 10.5938 13.888 10.7214 13.6484 10.9766C13.4089 11.2318 13.2891 11.5312 13.2891 11.875V16.9453C13.2891 17.2943 13.4062 17.5964 13.6406 17.8516C13.875 18.1016 14.151 18.2266 14.4688 18.2266C14.8125 18.2266 15.099 18.1042 15.3281 17.8594C15.5573 17.6094 15.6719 17.3047 15.6719 16.9453V16.1562H14.5547C14.4974 16.1562 14.4688 16.1302 14.4688 16.0781V14.2891C14.4688 14.237 14.4974 14.2109 14.5547 14.2109H17.5469C17.5885 14.2109 17.6094 14.237 17.6094 14.2891V16.9453C17.6094 17.5443 17.4688 18.0859 17.1875 18.5703C16.901 19.0547 16.5234 19.4401 16.0547 19.7266C15.5859 20.013 15.0573 20.1562 14.4688 20.1562ZM20.6328 20H18.8203C18.7682 20 18.7422 19.974 18.7422 19.9219L18.7578 8.92969C18.7578 8.88802 18.7786 8.86719 18.8203 8.86719H20.6172C20.6589 8.86719 20.6797 8.88802 20.6797 8.92969L20.6953 19.9219C20.6953 19.974 20.6745 20 20.6328 20ZM25.5156 20H23.7109C23.6641 20 23.6406 19.974 23.6406 19.9219V10.7969H21.5625C21.5104 10.7969 21.4844 10.7708 21.4844 10.7188L21.5 8.92969C21.5 8.88802 21.5208 8.86719 21.5625 8.86719H27.6406C27.6979 8.86719 27.7266 8.88802 27.7266 8.92969V10.7188C27.7266 10.7708 27.7057 10.7969 27.6641 10.7969H25.5625L25.5781 19.9219C25.5781 19.974 25.5573 20 25.5156 20ZM27.9688 19.9219L29.9531 8.92969C29.9635 8.88802 29.9896 8.86719 30.0312 8.86719H32.3516C32.3932 8.86719 32.4193 8.88802 32.4297 8.92969L34.3359 19.9219C34.3411 19.974 34.3203 20 34.2734 20H32.5C32.4479 20 32.4193 19.974 32.4141 19.9219L32.2422 18.75H30.0625L29.8906 19.9219C29.8854 19.974 29.8594 20 29.8125 20H28.0312C27.9896 20 27.9688 19.974 27.9688 19.9219ZM31.1016 12.5469L30.3828 17.0391H31.9219L31.2656 12.5469L31.1719 11.9531L31.1016 12.5469ZM40.5703 20H35.3984C35.3568 20 35.3359 19.974 35.3359 19.9219L35.3516 8.94531C35.3516 8.89323 35.3776 8.86719 35.4297 8.86719H37.2109C37.263 8.86719 37.2891 8.89323 37.2891 8.94531L37.2734 18.0312H40.5703C40.6224 18.0312 40.6484 18.0573 40.6484 18.1094V19.9219C40.6484 19.974 40.6224 20 40.5703 20Z" fill="#1B1B1B"/>
<path d="M54.4575 20.1562C53.8794 20.1562 53.3585 20.013 52.895 19.7266C52.4263 19.4401 52.0486 19.0547 51.7622 18.5703C51.4809 18.0859 51.3403 17.5443 51.3403 16.9453V11.875C51.3403 11.2917 51.4835 10.7604 51.77 10.2812C52.0513 9.79688 52.4289 9.41146 52.9028 9.125C53.3768 8.83333 53.895 8.6875 54.4575 8.6875C55.046 8.6875 55.5773 8.82812 56.0513 9.10938C56.5252 9.39583 56.9002 9.77865 57.1763 10.2578C57.4575 10.737 57.5981 11.276 57.5981 11.875V12.6094C57.5981 12.651 57.5721 12.6719 57.52 12.6719H55.7231C55.6815 12.6719 55.6606 12.651 55.6606 12.6094V12C55.6606 11.5938 55.546 11.2578 55.3169 10.9922C55.0877 10.7266 54.8013 10.5938 54.4575 10.5938C54.1502 10.5938 53.8768 10.7214 53.6372 10.9766C53.3976 11.2318 53.2778 11.5312 53.2778 11.875V16.9453C53.2778 17.2943 53.395 17.5964 53.6294 17.8516C53.8638 18.1016 54.1398 18.2266 54.4575 18.2266C54.8013 18.2266 55.0877 18.1042 55.3169 17.8594C55.546 17.6094 55.6606 17.3047 55.6606 16.9453V16.1562H54.5434C54.4861 16.1562 54.4575 16.1302 54.4575 16.0781V14.2891C54.4575 14.237 54.4861 14.2109 54.5434 14.2109H57.5356C57.5773 14.2109 57.5981 14.237 57.5981 14.2891V16.9453C57.5981 17.5443 57.4575 18.0859 57.1763 18.5703C56.8898 19.0547 56.5122 19.4401 56.0434 19.7266C55.5747 20.013 55.046 20.1562 54.4575 20.1562ZM58.1919 19.9219L60.1763 8.92969C60.1867 8.88802 60.2127 8.86719 60.2544 8.86719H62.5747C62.6164 8.86719 62.6424 8.88802 62.6528 8.92969L64.5591 19.9219C64.5643 19.974 64.5434 20 64.4966 20H62.7231C62.671 20 62.6424 19.974 62.6372 19.9219L62.4653 18.75H60.2856L60.1138 19.9219C60.1085 19.974 60.0825 20 60.0356 20H58.2544C58.2127 20 58.1919 19.974 58.1919 19.9219ZM61.3247 12.5469L60.6059 17.0391H62.145L61.4888 12.5469L61.395 11.9531L61.3247 12.5469ZM67.4341 20H65.6216C65.5799 20 65.5591 19.974 65.5591 19.9219L65.5903 8.92969C65.5903 8.88802 65.6111 8.86719 65.6528 8.86719H68.8872C69.4653 8.86719 69.9966 9.00781 70.4809 9.28906C70.9653 9.57031 71.3507 9.94792 71.6372 10.4219C71.9289 10.8958 72.0747 11.4323 72.0747 12.0312C72.0747 12.4219 72.0148 12.776 71.895 13.0938C71.7752 13.4115 71.6346 13.6797 71.4731 13.8984C71.3169 14.1172 71.1736 14.2786 71.0434 14.3828C71.6216 15.0234 71.9106 15.776 71.9106 16.6406L71.9262 19.9219C71.9262 19.974 71.9002 20 71.8481 20H70.0356C69.994 20 69.9731 19.9844 69.9731 19.9531V16.6406C69.9731 16.2552 69.8377 15.9219 69.5669 15.6406C69.296 15.3594 68.9627 15.2188 68.5669 15.2188H67.5122L67.4966 19.9219C67.4966 19.974 67.4757 20 67.4341 20ZM68.8872 10.7812H67.5122V13.2969H68.8872C69.2153 13.2969 69.507 13.1745 69.7622 12.9297C70.0226 12.6849 70.1528 12.3854 70.1528 12.0312C70.1528 11.6927 70.0278 11.401 69.7778 11.1562C69.5278 10.9062 69.2309 10.7812 68.8872 10.7812ZM72.7387 19.9219L74.7231 8.92969C74.7335 8.88802 74.7596 8.86719 74.8012 8.86719H77.1216C77.1632 8.86719 77.1893 8.88802 77.1997 8.92969L79.1059 19.9219C79.1111 19.974 79.0903 20 79.0434 20H77.27C77.2179 20 77.1893 19.974 77.1841 19.9219L77.0122 18.75H74.8325L74.6606 19.9219C74.6554 19.974 74.6294 20 74.5825 20H72.8012C72.7596 20 72.7387 19.974 72.7387 19.9219ZM75.8716 12.5469L75.1528 17.0391H76.6919L76.0356 12.5469L75.9419 11.9531L75.8716 12.5469ZM82.7075 20.1562C82.1294 20.1562 81.6085 20.013 81.145 19.7266C80.6762 19.4401 80.2986 19.0547 80.0122 18.5703C79.7309 18.0859 79.5903 17.5443 79.5903 16.9453V11.875C79.5903 11.2917 79.7335 10.7604 80.02 10.2812C80.3012 9.79688 80.6789 9.41146 81.1528 9.125C81.6268 8.83333 82.145 8.6875 82.7075 8.6875C83.296 8.6875 83.8273 8.82812 84.3012 9.10938C84.7752 9.39583 85.1502 9.77865 85.4262 10.2578C85.7075 10.737 85.8481 11.276 85.8481 11.875V12.6094C85.8481 12.651 85.8221 12.6719 85.77 12.6719H83.9731C83.9315 12.6719 83.9106 12.651 83.9106 12.6094V12C83.9106 11.5938 83.796 11.2578 83.5669 10.9922C83.3377 10.7266 83.0512 10.5938 82.7075 10.5938C82.4002 10.5938 82.1268 10.7214 81.8872 10.9766C81.6476 11.2318 81.5278 11.5312 81.5278 11.875V16.9453C81.5278 17.2943 81.645 17.5964 81.8794 17.8516C82.1137 18.1016 82.3898 18.2266 82.7075 18.2266C83.0512 18.2266 83.3377 18.1042 83.5669 17.8594C83.796 17.6094 83.9106 17.3047 83.9106 16.9453V16.1562H82.7934C82.7361 16.1562 82.7075 16.1302 82.7075 16.0781V14.2891C82.7075 14.237 82.7361 14.2109 82.7934 14.2109H85.7856C85.8273 14.2109 85.8481 14.237 85.8481 14.2891V16.9453C85.8481 17.5443 85.7075 18.0859 85.4262 18.5703C85.1398 19.0547 84.7622 19.4401 84.2934 19.7266C83.8247 20.013 83.296 20.1562 82.7075 20.1562ZM92.2153 20H87.0434C87.0018 20 86.9809 19.974 86.9809 19.9219L86.9966 8.92969C86.9966 8.88802 87.0174 8.86719 87.0591 8.86719H92.1997C92.2414 8.86719 92.2622 8.89323 92.2622 8.94531V10.7344C92.2622 10.776 92.2414 10.7969 92.1997 10.7969H88.9184V13.2969H92.1997C92.2414 13.2969 92.2622 13.3177 92.2622 13.3594L92.2778 15.1719C92.2778 15.2135 92.257 15.2344 92.2153 15.2344H88.9184V18.0312H92.2153C92.257 18.0312 92.2778 18.0573 92.2778 18.1094V19.9375C92.2778 19.9792 92.257 20 92.2153 20Z" fill="#1B1B1B"/>
<rect x="43" y="7" width="3" height="15" fill="url(#paint0_linear_23_37)"/>
<rect x="46" y="7" width="3" height="15" fill="url(#paint1_linear_23_37)"/>
<defs>
<linearGradient id="paint0_linear_23_37" x1="44.5" y1="7" x2="44.5" y2="22" gradientUnits="userSpaceOnUse">
<stop stop-color="#131313"/>
<stop offset="1" stop-color="#00FFA3"/>
</linearGradient>
<linearGradient id="paint1_linear_23_37" x1="47.5" y1="7" x2="47.5" y2="22" gradientUnits="userSpaceOnUse">
<stop stop-color="#00FFA3"/>
<stop offset="1" stop-color="#131313"/>
</linearGradient>
</defs>
</svg>
